<?xml version="1.0" encoding="utf-8"?>
<!-- Generator: Adobe Illustrator 27.2.0, SVG Export Plug-In . SVG Version: 6.00 Build 0)  -->
<svg version="1.1" id="Layer_1" xmlns="http://www.w3.org/2000/svg" xmlns:xlink="http://www.w3.org/1999/xlink" x="0px" y="0px"
	 viewBox="0 0 15 15" style="enable-background:new 0 0 15 15;" xml:space="preserve">
<style type="text/css">
	.st0{fill:none;stroke:#000000;stroke-miterlimit:10;}
</style>
<g>
	<path class="st0" d="M8,2.19c-1.08,0-2.05-0.07-3.4,1.04c-1.68,1.39-1.7,3.5-1.7,4.21c0,0.72-0.02,2.68,1.53,4.1
		c1.44,1.33,3.25,1.27,3.64,1.27"/>
	<line class="st0" x1="8" y1="2.19" x2="10.55" y2="2.19"/>
	<line class="st0" x1="8.06" y1="12.81" x2="10.55" y2="12.81"/>
</g>
<line class="st0" x1="1.9" y1="2.57" x2="1.9" y2="12.43"/>
<g>
	<path class="st0" d="M9.15,11.19c0.91,0,1.61,0.05,2.67-0.73c1.32-0.96,1.33-2.43,1.33-2.93c0-0.5,0.01-1.86-1.2-2.85
		C10.83,3.76,9.54,3.81,9.1,3.81"/>
	<line class="st0" x1="9.15" y1="11.19" x2="7.15" y2="11.19"/>
	<line class="st0" x1="9.1" y1="3.81" x2="7.15" y2="3.81"/>
</g>
</svg>
