<?xml version="1.0" encoding="utf-8"?>
<!-- Generator: Adobe Illustrator 27.2.0, SVG Export Plug-In . SVG Version: 6.00 Build 0)  -->
<svg version="1.1" id="Layer_1" xmlns="http://www.w3.org/2000/svg" xmlns:xlink="http://www.w3.org/1999/xlink" x="0px" y="0px"
	 viewBox="0 0 15 15" style="enable-background:new 0 0 15 15;" xml:space="preserve">
<style type="text/css">
	.st0{fill:none;stroke:#000000;stroke-miterlimit:10;}
</style>
<line class="st0" x1="13.25" y1="9.25" x2="13.25" y2="4.99"/>
<path class="st0" d="M1.13,8.44c1.18,0,1.37,0.01,2.38,0.01c1.29,0,1.64-0.08,2.27,0.08c0.19,0.05,1.96,0.53,2.06,1.75
	c0.06,0.73-0.49,1.74-1.48,1.82c-0.95,0.09-1.73-0.83-1.84-1.56c-0.16-1.06,1.74-1.89,2.5-2.65"/>
<path class="st0" d="M13.08,6.93c-0.55-0.01-1.37-0.01-2.38,0.07C9.42,7.09,9.09,7.21,8.46,7.06C8.27,7.02,6.48,6.59,6.34,5.38
	C6.26,4.64,6.77,3.63,7.75,3.51c0.95-0.12,1.76,0.78,1.9,1.5c0.2,1.06-1.21,1.46-2.63,2.88"/>
</svg>
