<?xml version="1.0" encoding="utf-8"?>
<!-- Generator: Adobe Illustrator 27.2.0, SVG Export Plug-In . SVG Version: 6.00 Build 0)  -->
<svg version="1.1" id="Layer_1" xmlns="http://www.w3.org/2000/svg" xmlns:xlink="http://www.w3.org/1999/xlink" x="0px" y="0px"
	 viewBox="0 0 15 15" style="enable-background:new 0 0 15 15;" xml:space="preserve">
<style type="text/css">
	.st0{fill:none;stroke:#000000;stroke-miterlimit:10;}
</style>
<line class="st0" x1="5.64" y1="1.75" x2="9.27" y2="1.75"/>
<path class="st0" d="M7.46,13.69V9.91c0,0,0.59,0.01,0.82,0.01c0.83,0,1.4,0.04,1.94-0.07c0.43-0.09,1.17-0.17,1.17-1.19
	c0-0.97-0.73-1.19-2.05-1.19c-1.47,0-2.46,0.01-3.44,0.01c-0.5,0-2.01,0.28-2.01-0.92c0-1.14,0.88-1.16,1.56-1.16
	c0.93,0,1.22,0.02,1.99,0.02c0,0,0-0.95,0-3.53"/>
</svg>
