<?xml version="1.0" encoding="utf-8"?>
<!-- Generator: Adobe Illustrator 27.2.0, SVG Export Plug-In . SVG Version: 6.00 Build 0)  -->
<svg version="1.1" id="Layer_1" xmlns="http://www.w3.org/2000/svg" xmlns:xlink="http://www.w3.org/1999/xlink" x="0px" y="0px"
	 viewBox="0 0 1295 1295" style="enable-background:new 0 0 1295 1295;" xml:space="preserve">
<style type="text/css">
	.st0{fill:none;stroke:#FFFFFF;stroke-width:8;stroke-miterlimit:10;}
</style>
<rect x="11.2" y="11.2" class="st0" width="1272.6" height="1272.6"/>
<line class="st0" x1="485.3" y1="329.6" x2="963.4" y2="329.6"/>
<line class="st0" x1="963.4" y1="964.4" x2="963.4" y2="487.1"/>
<line class="st0" x1="331.1" y1="963.9" x2="799.6" y2="964.4"/>
<line class="st0" x1="332.6" y1="336.7" x2="332.6" y2="806.7"/>
<line class="st0" x1="332.6" y1="336.7" x2="11.2" y2="11.2"/>
<line class="st0" x1="1283.8" y1="11.2" x2="963.4" y2="329.6"/>
<line class="st0" x1="1283.8" y1="1283.8" x2="963.4" y2="963.6"/>
<line class="st0" x1="11.2" y1="1283.8" x2="331.1" y2="963.9"/>
<path class="st0" d="M331.1,963.9c4.1-202.1,144.3-280.6,209.3-299.3c33.1-9.5,49.1-16.7,119.1-20.1C731.2,641,806,609.3,864,557
	c80-72.1,93.3-177.6,96-223"/>
<path class="st0" d="M11.2,11.2"/>
<line class="st0" x1="1283.8" y1="1283.8" x2="963.4" y2="329.6"/>
<line class="st0" x1="332.6" y1="336.7" x2="1283.8" y2="11.2"/>
<line class="st0" x1="11.2" y1="1283.8" x2="963.4" y2="963.6"/>
<line class="st0" x1="11.2" y1="11.2" x2="331.1" y2="963.9"/>
<path class="st0" d="M329.1,336.6C531.1,340,610.1,480,629,545c9.6,33.1,16.8,49.1,20.4,119.1c3.7,71.6,35.7,146.3,88.1,204.1
	c72.4,79.8,177.9,92.7,223.3,95.3"/>
<path class="st0" d="M798.4,328.5c-0.4-14.2-3.3-52.9-31.4-89c-30.1-38.8-70.1-50.2-85.2-54.2c-12.9-3.5-42.2-10.9-78.2-1.9
	c-46.3,11.6-72.5,42.6-80.5,52.3c-1.5,1.8-36.2,45-36.4,94.1c0,8.1,0.8,43.2,0.8,43.2"/>
<path class="st0" d="M956.9,334.9c-29.7,1.7-54.3,6.3-72.5,10.8c-7.3,1.8-20.3,6.1-46.4,14.7c-33.1,10.9-46.4,24.6-46.4,24.6
	c-4.6,9.6-9.1,19.4-15.7,28.9c-3.6,5.1-15.1,19.8-19.2,24.4c-4.3,4.9-16.1,17.6-35.1,29.2c-8.4,5.1-28.4,16.2-56.3,20.9
	c-10,1.7-23.8,3.4-41.8,1.3c-4.9-0.6-9.9-1.9-16.3-5.8c-6.2-3.8-9.9-7.6-12.3-11"/>
<path class="st0" d="M334.7,333.9c-1.5-22.6-1.1-57.2,10.8-96.8c17.7-58.4,50.7-94.8,71.2-116.9c18.6-20.1,54-57.4,113.8-82.1
	c17-7,87.8-34.3,178.1-16.3c59.9,12,101,38.4,116.9,49.6c35.7,25,58.1,53.2,71.2,69.7c9.8,12.3,21.6,27.4,33,49.2
	c20.8,39.7,26,75.6,28.4,92.9c2.5,17.5,3,32.2,3.1,42.3"/>
<path class="st0" d="M962,796c14.2-0.4,52.9-3.3,89-31.4c38.8-30.1,50.2-70.1,54.2-85.2c3.5-12.9,10.9-42.2,1.9-78.2
	c-11.6-46.3-42.6-72.5-52.3-80.5c-1.8-1.5-50.9-36.4-94.1-36.4c-8.1,0-39-0.3-39-0.3"/>
<path class="st0" d="M960,962.3c-1.7-29.7-10.8-62.1-15.3-80.3c-1.8-7.3-6.1-20.3-14.7-46.4c-10.9-33.1-24.6-46.4-24.6-46.4
	c-9.6-4.6-19.4-9.1-28.9-15.7c-5.1-3.6-19.8-15.1-24.4-19.2c-4.9-4.3-17.6-16.1-29.2-35.1c-5.1-8.4-16.2-28.4-20.9-56.3
	c-1.7-10-3.4-23.8-1.3-41.8c0.6-4.9,1.9-9.9,5.8-16.3c3.8-6.2,7.6-9.9,11-12.3"/>
<path class="st0" d="M956.6,332.3c22.6-1.5,57.2-1.1,96.8,10.8c58.4,17.7,94.8,50.7,116.9,71.2c20,18.6,57.4,54,82.1,113.8
	c7,17,34.3,87.8,16.3,178.1c-12,59.9-38.4,101-49.6,116.9c-25,35.7-53.2,58.1-69.7,71.2c-12.3,9.8-27.4,21.6-49.2,33
	c-39.7,20.8-75.8,31-93.1,33.4c-17.5,2.5-33.6,2.2-43.8,2.2"/>
<path class="st0" d="M491.9,962.8c0.4,14.2,3.3,52.9,31.4,89c30.1,38.8,70.1,50.2,85.2,54.2c12.9,3.5,42.2,10.9,78.2,1.9
	c46.3-11.6,72.5-42.6,80.5-52.3c1.5-1.8,36.2-45,36.4-94.1c0-8.1-0.8-43.2-0.8-43.2"/>
<path class="st0" d="M333.3,956.4c29.7-1.7,54.3-6.3,72.5-10.8c7.3-1.8,20.3-6.1,46.4-14.7c33.1-10.9,46.4-24.6,46.4-24.6
	c4.6-9.6,9.1-19.4,15.7-28.9c3.6-5.1,15.1-19.8,19.2-24.4c4.3-4.9,16.1-17.6,35.1-29.2c8.4-5.1,28.4-16.2,56.3-20.9
	c10-1.7,23.8-3.4,41.8-1.3c4.9,0.6,11.9,0.2,18.3,4.1c6.2,3.8,12.6,9.5,15,12.9"/>
<path class="st0" d="M958.3,961.7c1.5,22.6-1.6,52.9-13.6,92.5c-17.7,58.4-50.7,94.8-71.2,116.9c-18.6,20-54,57.4-113.8,82.1
	c-17,7-87.8,34.3-178.1,16.3c-59.9-12-101-38.4-116.9-49.6c-35.7-25-58.1-53.2-71.2-69.7c-9.8-12.3-21.6-27.4-33-49.2
	c-20.8-39.7-26-75.6-28.4-92.9c-2.5-17.5-3-32.2-3.1-42.3"/>
<path class="st0" d="M329.6,499.3c-14.2,0.4-52.9,3.3-89,31.4c-38.8,30.1-50.2,70.1-54.2,85.2c-3.5,12.9-10.9,42.2-1.9,78.2
	c11.6,46.3,42.6,72.5,52.3,80.5c1.8,1.5,44.7,30.6,93.8,30.8c8.1,0,40.9,0,40.9,0"/>
<path class="st0" d="M336,340.8c1.7,29.7,6.3,54.3,10.8,72.5c1.8,7.3,6.1,20.3,14.7,46.4c10.9,33.1,24.6,46.4,24.6,46.4
	c9.6,4.6,19.4,9.1,28.9,15.7c5.1,3.6,19.8,15.1,24.4,19.2c4.9,4.3,17.6,16.1,29.2,35.1c5.1,8.4,16.2,28.4,20.9,56.3
	c1.7,10,0.9,15-1.2,33.1c-0.6,4.9-3.8,13.2-7.7,19.6c-3.8,6.2-9.3,12-12.6,14.4"/>
<path class="st0" d="M335,963c-22.6,1.5-57.2,1.1-96.8-10.8c-58.4-17.7-94.8-50.7-116.9-71.2c-20-18.6-57.4-54-82.1-113.8
	c-7-17-34.4-87.8-16.3-178.1c12-59.9,38.4-101,49.6-116.9c25-35.7,53.2-58.1,69.7-71.2c12.3-9.8,27.4-21.6,49.2-33
	c39.7-20.8,75.6-26,92.9-28.4c17.5-2.5,38.3-3.9,48.5-4"/>
</svg>
