<svg version="1.1" viewBox="0.0 0.0 779.0656167979002 488.4540682414698" fill="none" stroke="none" stroke-linecap="square" stroke-miterlimit="10" xmlns:xlink="http://www.w3.org/1999/xlink" xmlns="http://www.w3.org/2000/svg"><clipPath id="p.0"><path d="m0 0l779.0656 0l0 488.45407l-779.0656 0l0 -488.45407z" clip-rule="nonzero"/></clipPath><g clip-path="url(#p.0)"><path fill="#000000" fill-opacity="0.0" d="m0 0l779.0656 0l0 488.45407l-779.0656 0z" fill-rule="evenodd"/><path fill="#434343" d="m297.59583 396.22702l183.87402 0l0 89.82678l-183.87402 0z" fill-rule="evenodd"/><path fill="#434343" d="m607.4273 308.09348l0 0c-21.327087 92.22928 -112.7554 158.31769 -218.60468 158.01706c-105.849304 -0.30059814 -196.80139 -66.90698 -217.46603 -159.2555z" fill-rule="evenodd"/><path fill="#434343" d="m384.05252 2.4002624l10.960632 0l0 202.23622l-10.960632 0z" fill-rule="evenodd"/><path fill="#434343" d="m165.76906 232.71785l447.5276 0c8.307312 0 16.274414 3.3000793 22.14856 9.17424c5.8742065 5.874176 9.174255 13.841263 9.174255 22.14859l0 31.322845c0 0.0023498535 -0.0018920898 0.0042419434 -0.004272461 0.0042419434l-510.16895 -0.0042419434l0 0c-0.0023345947 0 -0.0042419434 -0.0019226074 -0.0042419434 -0.004272461l0.0042419434 -31.318573l0 0c0 -17.299118 14.023712 -31.32283 31.322845 -31.32283z" fill-rule="evenodd"/><path fill="#434343" d="m736.36743 206.68895l-8.317749 255.43306l-11.773987 0l-8.317749 -255.43306z" fill-rule="evenodd"/><path fill="#434343" d="m722.1624 426.05377l14.207336 8.537628l0 34.150482c0 4.71521 -6.36084 8.537628 -14.207336 8.537628c-7.8464966 0 -14.207336 -3.8224182 -14.207336 -8.537628l0 -34.150482z" fill-rule="evenodd"/><path fill="#434343" d="m751.53284 161.09512l0 0c16.377197 16.377197 16.50409 42.802963 0.28344727 59.02362q-29.370117 29.370071 -29.086609 88.39371q-0.2835083 -59.023636 -29.937012 -88.67717l0 0c-16.377197 -16.377213 -16.50415 -42.80298 -0.28344727 -59.02362l0 0c16.220642 -16.220657 42.646362 -16.093735 59.02362 0.28346252z" fill-rule="evenodd"/><path fill="#434343" d="m681.774 197.99286l0 0c-5.2610474 -29.803299 0.9483032 -62.141357 15.438599 -80.40386c14.490356 -18.262497 34.040344 -18.38955 48.608276 -0.31591034c14.567932 18.073639 20.915222 50.33011 15.781616 80.20096z" fill-rule="evenodd"/><path fill="#434343" d="m42.69821 374.39505l8.3177185 -255.43307l11.7740135 0l8.317715 255.43307z" fill-rule="evenodd"/><path fill="#434343" d="m56.90321 155.03021l-14.207348 -8.537628l0 -34.150475c0 -4.7152023 6.3608437 -8.537621 14.207348 -8.537621c7.8465004 0 14.207348 3.8224182 14.207348 8.537621l0 34.150475z" fill-rule="evenodd"/><path fill="#434343" d="m27.532808 419.98886l0 0c-16.377201 -16.377197 -16.504112 -42.80298 -0.28346443 -59.02362q29.370079 -29.370056 29.086613 -88.39371q0.28346634 59.02365 29.937008 88.677185l0 0c16.377205 16.377197 16.504112 42.80298 0.28346252 59.02362l0 0c-16.220642 16.220642 -42.64642 16.09372 -59.02362 -0.28347778z" fill-rule="evenodd"/><path fill="#434343" d="m97.2916 383.09113l0 0c5.2610703 29.803284 -0.94825745 62.141357 -15.438576 80.40387c-14.490326 18.262482 -34.040348 18.389557 -48.608273 0.31591797c-14.567923 -18.07367 -20.915207 -50.33011 -15.7815895 -80.20099z" fill-rule="evenodd"/><path fill="#434343" d="m512.0525 70.33202l10.960632 0l0 134.29922l-10.960632 0z" fill-rule="evenodd"/><path fill="#434343" d="m256.05252 70.33202l10.960632 0l0 134.29922l-10.960632 0z" fill-rule="evenodd"/></g></svg>